<?xml version="1.0" encoding="UTF-8"?>
<svg id="Layer_2" data-name="Layer 2" xmlns="http://www.w3.org/2000/svg" viewBox="0 0 475.46 233.88">
  <defs>
    <style>
      .cls-1 {
        fill: #231f20;
      }

      .cls-2 {
        fill: #d9ceb4;
      }

      .cls-3 {
        fill: #cc3918;
      }

      .cls-4 {
        fill: #f57b20;
      }
    </style>
  </defs>
  <g id="Layer_1-2" data-name="Layer 1">
    <g>
      <g>
        <path class="cls-1" d="M21.95,183.48H0v-12.12h56.64v12.12h-22.04v49.35h-12.65v-49.35Z"/>
        <path class="cls-1" d="M62.79,171.36h11.77v19.67c3.86-2.72,8.34-3.95,13.17-3.95,11.85,0,18.18,6.23,18.18,17.12v28.63h-11.68v-25.99c0-5.53-1.41-8.61-7.55-8.61-6.94,0-12.12,3.78-12.12,9.75v24.85h-11.77v-61.47Z"/>
        <path class="cls-1" d="M112.06,188.92h11.77v3.34c3.69-4.21,11.85-4.92,18.18-3.6l-1.67,11.06c-7.55-1.93-16.51-.44-16.51,7.38v25.73h-11.77v-43.91Z"/>
        <path class="cls-1" d="M167.56,187.08c14.67,0,24.33,8.78,24.15,23.27l-.09,4.21h-35.83c.7,4.92,4.57,8.08,11.5,8.08,6.15,0,9.66-1.84,11.15-5.53h12.56c-3.07,11.42-12.29,16.68-23.71,16.68-14.93,0-24.24-8.96-24.24-23.36s9.84-23.36,24.5-23.36ZM167.3,198.14c-6.24,0-10.71,2.55-10.89,7.55h22.04c-.44-5-4.83-7.55-11.15-7.55Z"/>
        <path class="cls-1" d="M220.78,187.08c14.67,0,24.32,8.78,24.15,23.27l-.09,4.21h-35.83c.7,4.92,4.57,8.08,11.5,8.08,6.15,0,9.66-1.84,11.15-5.53h12.56c-3.07,11.42-12.29,16.68-23.71,16.68-14.93,0-24.24-8.96-24.24-23.36s9.84-23.36,24.5-23.36ZM220.52,198.14c-6.24,0-10.71,2.55-10.89,7.55h22.04c-.44-5-4.83-7.55-11.15-7.55Z"/>
        <path class="cls-1" d="M277.95,171.36h24.85c20.37,0,32.75,10.27,32.75,30.38s-13.17,31.09-34.69,31.09h-22.92v-61.47ZM300.96,224.4c17.48,0,25.2-7.9,25.2-22.48s-7.11-22.04-23.36-22.04h-15.72v44.52h13.87Z"/>
        <path class="cls-1" d="M343.03,210.52c0-14.67,9.75-23.45,24.59-23.45s24.32,8.69,24.32,23.36-9.57,23.45-24.59,23.45-24.32-8.78-24.32-23.36ZM367.35,226.07c10.8,0,15.81-6.06,15.81-15.63s-5.01-15.63-15.81-15.63-15.54,5.97-15.54,15.72,4.92,15.54,15.54,15.54Z"/>
        <path class="cls-1" d="M402.57,218.51v-21.95h-7.55v-7.64h7.55v-16.33h8.52v16.33h14.49v7.64h-14.49v22.66c0,7.82,7.64,7.03,14.05,5.62l2.02,6.76c-4.21,1.41-6.94,1.93-10.36,1.93-10.71,0-13.87-5.97-14.23-15.02Z"/>
        <path class="cls-1" d="M454.29,226.15c8.34,0,12.38-2.02,12.38-6.06,0-3.16-1.4-5.36-9.75-6.5l-5.53-.7c-11.86-1.49-17.39-4.39-17.39-12.65s7.64-13.17,19.85-13.17,18.88,4.74,20.02,12.56h-8.43c-.61-3.34-4.3-4.92-11.59-5.01-7.55.09-11.59,2.2-11.59,5.62,0,3.07,1.93,4.74,9.48,5.8l6.15.79c12.47,1.49,17.56,4.83,17.56,13.26s-7.29,13.7-21.16,13.79c-13.26-.09-19.76-5.18-20.46-13.52h8.78c.53,3.69,3.95,5.62,11.68,5.8Z"/>
      </g>
      <g>
        <circle class="cls-3" cx="326.79" cy="71.88" r="51.28"/>
        <circle class="cls-4" cx="204.88" cy="30.28" r="30.28"/>
        <circle class="cls-2" cx="115.82" cy="101.47" r="18.43"/>
      </g>
    </g>
  </g>
</svg>